<?xml version="1.0" encoding="UTF-8"?>
<svg width="90px" height="90px" viewBox="0 0 90 90" version="1.1" xmlns="http://www.w3.org/2000/svg" xmlns:xlink="http://www.w3.org/1999/xlink">
    <!-- Generator: Sketch 55.2 (78181) - https://sketchapp.com -->
    <title>Logo/Outline</title>
    <desc>Created with Sketch.</desc>
    <defs>
        <polygon id="path-1" points="0 0.141114983 89.8583287 0.141114983 89.8583287 89.6863484 0 89.6863484"></polygon>
        <polygon id="path-3" points="0 89.858885 89.8583916 89.858885 89.8583916 0.31358885 0 0.31358885"></polygon>
    </defs>
    <g id="Designs" stroke="none" stroke-width="1" fill="none" fill-rule="evenodd">
        <g id="Homepage---Desktop-Recommended" transform="translate(-360.000000, -31.000000)">
            <g id="Nav">
                <g transform="translate(360.000000, 31.000000)" id="Logo/Orange">
                    <g>
                        <g id="Group-16">
                            <g id="Group-3" transform="translate(0.000000, 0.172474)">
                                <mask id="mask-2" fill="white">
                                    <use xlink:href="#path-1"></use>
                                </mask>
                                <g id="Clip-2"></g>
                                <path d="M44.9307063,89.6863484 C20.1555315,89.6863484 -6.29370629e-05,69.616662 -6.29370629e-05,44.9152683 C-6.29370629e-05,20.2138746 20.1555315,0.141052265 44.9307063,0.141052265 C69.7058811,0.141052265 89.8583287,20.2264181 89.8583287,44.9152683 C89.8583287,69.6041185 69.7027343,89.6863484 44.9307063,89.6863484" id="Fill-1" fill="#F18826" mask="url(#mask-2)"></path>
                            </g>
                            <path d="M26.5153217,52.8366794 C24.7703916,54.5291185 22.4335385,55.4796063 19.9981888,55.4865052 C14.6863007,55.4865052 10.3782587,51.0269582 10.3782587,45.5206516 C10.3782587,40.0140314 14.6863007,35.5547979 19.9981888,35.5547979 C22.4338531,35.5626376 24.771021,36.5140662 26.5153217,38.2077596 L26.5153217,31.6223937 C24.5047972,30.5994669 22.2809161,30.0622892 20.0233636,30.0544495 C11.7943427,30.0544495 5.11986713,36.9534042 5.11986713,45.4704774 C5.11986713,53.9875505 11.7943427,60.9021847 20.0233636,60.9021847 C22.2809161,60.8940314 24.5047972,60.3568537 26.5153217,59.3342404 L26.5153217,52.8366794 Z" id="Fill-4" fill="#FFFFFF"></path>
                            <path d="M37.9667864,57.0982892 C37.9755629,59.1626446 36.3030105,60.8431672 34.2314371,60.8519799 C32.1598636,60.8604146 30.473465,59.1940035 30.4646216,57.1296481 C30.4561573,55.0652927 32.1283951,53.3844564 34.1999685,53.3759895 L34.2188497,53.3759895 C36.2838147,53.3759895 37.9598287,55.0405192 37.9667864,57.0982892" id="Fill-6" fill="#FFFFFF"></path>
                            <path d="M83.1116643,33.8143171 C83.1116643,35.8786725 81.4321888,37.5522962 79.3603007,37.5522962 C77.2887273,37.5522962 75.6092517,35.8786725 75.6092517,33.8143171 C75.6092517,31.7499617 77.2887273,30.076338 79.3606154,30.076338 L79.3669091,30.076338 C81.435965,30.0797875 83.1116643,31.7521568 83.1116643,33.8143171" id="Fill-8" fill="#FFFFFF"></path>
                            <polygon id="Fill-10" fill="#FFFFFF" points="64.5356958 30.5090906 64.5356958 41.1052578 78.2213601 60.5414948 79.3636678 60.5414948 79.3636678 51.6167561"></polygon>
                            <polygon id="Fill-12" fill="#FFFFFF" points="44.7796573 60.541338 45.5855664 60.541338 48.1436434 51.9210941 40.6100769 30.5089338 34.0929441 30.5089338"></polygon>
                            <mask id="mask-4" fill="white">
                                <use xlink:href="#path-3"></use>
                            </mask>
                            <g id="Clip-15"></g>
                            <polygon id="Fill-14" fill="#FFFFFF" mask="url(#mask-4)" points="54.5003497 60.5414634 60.5797552 60.5414634 60.5797552 30.5090592 54.5003497 30.5090592"></polygon>
                        </g>
                    </g>
                </g>
            </g>
        </g>
    </g>
</svg>